<?xml version="1.0" encoding="utf-8"?>
<!-- Generator: Adobe Illustrator 21.1.0, SVG Export Plug-In . SVG Version: 6.00 Build 0)  -->
<svg version="1.1" id="Layer_1" xmlns="http://www.w3.org/2000/svg" xmlns:xlink="http://www.w3.org/1999/xlink" x="0px" y="0px"
	 viewBox="0 0 617.5 617.5" style="enable-background:new 0 0 617.5 617.5;" xml:space="preserve">
<style type="text/css">
	.st0{fill:#FFFFFF;}
</style>
<g>
	<path class="st0" d="M617.5,308.5c0.3,171.4-140.1,312.1-314.7,309C136.5,614.5-0.7,478.7,0,307.3C0.7,136.2,140.5-2.1,312.6,0
		C480.9,2,617.3,138.9,617.5,308.5z M309,22.7C151.8,22.6,23.5,149.6,22.8,307.2C22,466.2,149.4,591.9,303.1,594.8
		c160.4,2.9,289.7-125.5,291.6-282.2C596.7,152.2,467.2,22.7,309,22.7z"/>
	<path class="st0" d="M284.3,450.1c0-51.5,0-103,0-154.6c10,0,19.5,0,29.3,0c0,68.2,0,136.2,0,204.4l-3.5,0.1l-13,0.2h-12.3
		l-8.6-10.2c0,0-57.3-73.2-85.9-109.8c-8.5-10.9-17.1-21.8-25.6-32.7c-0.7-0.9-1.4-1.7-2.7-3.3c0,52.4,0,104,0,155.8
		c-10,0-19.5,0-29.3,0c0-68.1,0-136.2,0-204.6l3.3,0c7.7,0,26.1-0.1,26.1-0.1l1.7,2.4c0,0,35.4,45.3,53.1,67.9
		c21.7,27.8,65.2,83.3,65.2,83.3l2.2,2.4L284.3,450.1z"/>
	<path class="st0" d="M342.4,295.3l36.1-0.2l5.9,9c17.6,25.6,36,50.7,54.1,76c0.5,0.6,1,1.3,1.8,2.3c1.8-2.5,3.5-4.9,5.2-7.2
		c18.2-25.7,54.5-77,54.5-77l2.3-3c0,0,23.3,0.1,33.2,0.1c1.1,0,2.2,0,4.2,0c-2.1,3-3.8,5.3-5.5,7.7c-26,35.6-52,71.1-77.8,106.8
		c-1.1,1.5-1.8,3.7-1.8,5.6c-0.1,26.8-0.1,53.6-0.1,80.4c0,1.3,0,2.7,0,4.2c-9.9,0-19.5,0-29.5,0c0-1.5,0-2.8,0-4.2
		c0-26.7,0-53.4-0.1-80.1c0-2.2-0.8-4.8-2-6.6c-26-36.9-52.2-73.8-78.3-110.6C344,297.7,343.4,296.9,342.4,295.3z"/>
	<path class="st0" d="M192.5,120.9c0,11.3,0,24.5,0,36.3c-11.2-4.3-32.6-12.4-32.6-12.4l-1.2-0.4c0,0,14.2,20.7,21.1,30.9
		c-3.1,2.2-6.2,4.3-9.7,6.8c-11.1-16.2-22.1-32.3-33.3-48.6c3-2.1,10-6.8,10-6.8l2.3,1c0,0,17.5,6.6,26.3,9.9c1.5,0.6,3,1,5.2,1.8
		c0-6.1,0-11.7,0-17.2c0-5.4,0.2-18.6,0.2-18.6l2.2-1.7c0,0,4.8-3.4,7.5-5.2c11.1,16.2,22.1,32.2,33.2,48.6
		c-3.3,2.3-6.4,4.4-9.8,6.8c-6.8-9.9-13.6-19.8-20.3-29.6L192.5,120.9z"/>
	<path class="st0" d="M337.5,69.9c12.4,2.9,24.7,4.9,36.3,8.8c19.7,6.5,25.1,29.2,11.8,46.5c-6.2,8-14.5,11.5-24.2,10
		c-12.2-1.8-24.2-4.8-36.7-7.4C329,108.4,333.2,89.4,337.5,69.9z M338.9,118.6c7.8,1.6,15.3,3.2,22.8,4.7c1.4,0.3,3,0.1,4.4,0
		c7.9-0.9,12.9-6.9,14.2-16.9c1-7.7-2.2-13.6-9.6-16.2c-5.3-1.8-10.8-2.8-16.3-4.2c-2.6-0.6-5.2-1.1-8-1.7
		C344,95.8,341.5,106.9,338.9,118.6z"/>
	<path class="st0" d="M358.5,245c-3.5,0-6.8,0.3-10.1-0.1c-1.4-0.2-2.8-1.7-3.8-3c-9-11-17.9-22-26.9-33.1c-0.6-0.7-1.2-1.3-2.3-2.6
		c0,13.3,0,25.8,0,38.5c-4,0-7.6,0-11.5,0c0-19,0-57.6,0-57.6l11.4,0.1l1.5,1.7c0,0,17.9,22.1,26.8,33.1c0.8,1,1.7,2,3.4,3.8
		c0-13.5,0-25.9,0-38.5c4,0,7.7,0,11.6,0C358.5,206.4,358.5,225.4,358.5,245z"/>
	<path class="st0" d="M404.2,151.5c11.5-16.3,22.7-32.2,34-48.2c14.3,10.1,28.3,20,42.8,30.2c-2.3,3.3-4.6,6.5-6.9,9.7
		c-11-7.8-21.9-15.4-33-23.2c-2.1,2.9-4,5.6-6.1,8.5c5.8,4.1,11.4,8.2,17.4,12.4c-2.3,3.2-4.5,6.3-6.8,9.7
		c-5.9-4.1-11.5-8.1-17.4-12.2c-2.4,3.4-4.7,6.7-7.3,10.2c11.4,8.1,22.6,16,34.1,24.1c-2.3,3.3-4.5,6.4-6.9,9.7
		C433.4,172.1,419,161.9,404.2,151.5z"/>
	<path class="st0" d="M309.6,125.5c-3.9,0.7-13,2.5-13,2.5l-1.1-1.6l-5.5-7.6l-1.3-1.8l-2.2,0.4c-9.8,1.6-29.4,5.3-29.4,5.3
		l-2.2,0.4l-0.6,2.2l-0.7,2.3l-2.2,8.7l-9.2,1.5c0,0-2.5,0.4-4.2,0.6c2.1-7.7,4.1-15,6.2-22.3c3.5-12.5,10.6-37.6,10.6-37.6l0.8-3.1
		l13.5-2.2l2.1-0.3l1.1,1.4l37.1,50.7L309.6,125.5z M258.4,110.2c7.6-1.4,14.6-2.6,22.2-4c-5.2-7.1-10-13.6-15.1-20.6
		C263,94,260.8,101.8,258.4,110.2z"/>
	<path class="st0" d="M273.2,244.9c-3.7,0-7.2,0-11,0c0-19.1,0-38.2,0-57.5c3.6,0,7.2,0,11,0C273.2,206.4,273.2,225.4,273.2,244.9z"
		/>
	<g>
		<path class="st0" d="M534,58.4v-0.2c0-15.4,12.5-28.3,28.4-28.3c15.9,0,28.3,12.8,28.3,28.2v0.2c0,15.4-12.5,28.3-28.4,28.3
			C546.3,86.5,534,73.8,534,58.4z M585.2,58.2v-0.1c0-12.7-9.8-22.9-22.9-22.9c-13.1,0-23,10.4-23,23.1v0.1
			c0,12.7,9.8,22.9,22.9,22.9C575.3,81.3,585.2,70.9,585.2,58.2z M552,44h12c3.5,0,6.4,1.1,8.1,2.8c1.4,1.4,2.2,3.3,2.2,5.7v0.1
			c0,4.3-2.5,7-6.2,8.1l7.2,10.1h-6.1l-6.5-9.3h-5.6v9.3H552V44z M563.7,57.1c3.3,0,5.3-1.6,5.3-4.2v-0.1c0-2.7-2-4.2-5.3-4.2h-6.7
			v8.5H563.7z"/>
	</g>
</g>
</svg>
