<?xml version="1.0" encoding="utf-8"?>
<!-- Generator: Adobe Illustrator 22.0.1, SVG Export Plug-In . SVG Version: 6.00 Build 0)  -->
<svg version="1.1" xmlns="http://www.w3.org/2000/svg" xmlns:xlink="http://www.w3.org/1999/xlink" x="0px" y="0px"
	 viewBox="0 0 600 1450" style="enable-background:new 0 0 600 1450;" xml:space="preserve">
<style type="text/css">
	.st0{display:none;}
	.st1{display:inline;opacity:0.26;}
	.st2{fill:#2C96FF;}
	.st3{display:inline;fill:none;stroke:#2C96FF;stroke-width:1.25;stroke-miterlimit:10;}
	.st4{display:inline;fill:#FF2964;}
	.st5{fill:#005EC8;}
	.st6{display:inline;fill:none;}
	.st7{opacity:0.26;}
	.st8{display:inline;}
	.st9{fill:none;stroke:#2C96FF;stroke-width:1.25;stroke-miterlimit:10;}
	.st10{fill:#FF2964;}
</style>
<g id="OG" class="st0">
	<g class="st1">
		<circle class="st2" cx="409.2" cy="522.7" r="46.4"/>
	</g>
	<g class="st1">
		<circle class="st2" cx="94.3" cy="1170.6" r="46.4"/>
	</g>
	<g class="st1">
		<circle class="st2" cx="312.2" cy="928.9" r="46.4"/>
	</g>
	<g class="st1">
		<circle class="st2" cx="87.2" cy="783.9" r="46.4"/>
	</g>
	<g class="st1">
		<circle class="st2" cx="504.2" cy="1174.7" r="46.4"/>
	</g>
	<g class="st1">
		<circle class="st2" cx="331.2" cy="1345.7" r="46.4"/>
	</g>
	<g class="st1">
		<circle class="st2" cx="147.4" cy="383.8" r="46.4"/>
	</g>
	<g class="st1">
		<circle class="st2" cx="273" cy="49.3" r="46.4"/>
	</g>
	<line class="st3" x1="272" y1="1512.2" x2="206" y2="1325.2"/>
	<line class="st3" x1="-60.4" y1="1363.2" x2="96.6" y2="1171.2"/>
	<line class="st3" x1="-51.7" y1="598.2" x2="85.7" y2="783.2"/>
	<line class="st3" x1="-87.7" y1="542.7" x2="54" y2="543.2"/>
	<line class="st3" x1="-114.7" y1="877.2" x2="87.8" y2="784.2"/>
	<line class="st3" x1="64.6" y1="1390.5" x2="205" y2="1325.5"/>
	<line class="st3" x1="64" y1="1391.2" x2="96" y2="1171.8"/>
	<line class="st3" x1="-20.2" y1="976.1" x2="94.4" y2="1168.6"/>
	<line class="st3" x1="194.7" y1="1034.5" x2="-19.4" y2="976.2"/>
	<line class="st3" x1="147.3" y1="384.5" x2="207.8" y2="663.2"/>
	<line class="st3" x1="432.6" y1="348.5" x2="409.1" y2="522.8"/>
	<line class="st3" x1="311.2" y1="925.7" x2="316.8" y2="641.2"/>
	<polyline class="st3" points="316.8,642.8 197.1,1038.7 504.3,1174.8 	"/>
	<line class="st3" x1="198.6" y1="1037.2" x2="331.6" y2="1345.2"/>
	<polyline class="st3" points="504.3,1175.5 332,1346.5 205.6,1325.2 	"/>
	<line class="st3" x1="490.6" y1="963.2" x2="331.4" y2="1345.5"/>
	<line class="st3" x1="408.6" y1="523.5" x2="490.6" y2="963.2"/>
	<polyline class="st3" points="492.6,969.2 207.8,663.2 432.6,348.5 246,254.5 	"/>
	<line class="st3" x1="318.2" y1="644.2" x2="488.8" y2="963.7"/>
	<polyline class="st3" points="311.2,928.7 198.6,1037.2 490.6,963.2 	"/>
	<line class="st3" x1="311.2" y1="928.7" x2="490.6" y2="963.2"/>
	<line class="st3" x1="205.6" y1="1325.2" x2="198.3" y2="1037.2"/>
	<line class="st3" x1="86.6" y1="783.9" x2="198.6" y2="1037.2"/>
	<line class="st3" x1="87.1" y1="783.9" x2="207.8" y2="663.2"/>
	<line class="st3" x1="148" y1="384.5" x2="87.1" y2="783.9"/>
	<line class="st3" x1="207.8" y1="663.2" x2="408.5" y2="523.1"/>
	<line class="st3" x1="407.5" y1="1137.9" x2="92.6" y2="1170.2"/>
	<line class="st3" x1="205.6" y1="1325.8" x2="77.3" y2="1484.7"/>
	<line class="st3" x1="247.2" y1="254.8" x2="408.5" y2="523.1"/>
	<circle class="st4" cx="316.4" cy="644.4" r="10.5"/>
	<circle class="st4" cx="249.3" cy="1153.7" r="10.5"/>
	<circle class="st4" cx="331.4" cy="1345.5" r="10.5"/>
	<circle class="st4" cx="490.6" cy="963.2" r="10.5"/>
	<circle class="st4" cx="504" cy="1175.1" r="10.5"/>
	<circle class="st4" cx="432.4" cy="348.1" r="10.5"/>
	<circle class="st4" cx="198.6" cy="1037.2" r="10.5"/>
	<circle class="st4" cx="207.8" cy="663.2" r="10.5"/>
	<circle class="st4" cx="63.8" cy="1390.7" r="10.5"/>
	<circle class="st4" cx="95.6" cy="1170.2" r="10.5"/>
	<circle class="st4" cx="205.6" cy="1325.2" r="10.5"/>
	<line class="st3" x1="91.2" y1="61.8" x2="297.7" y2="484.5"/>
	<polyline class="st3" points="54,543.2 92.6,64.2 147.8,383.8 	"/>
	<polyline class="st3" points="147.8,383.8 295.6,484.2 54,544.5 	"/>
	<line class="st3" x1="147.3" y1="385.5" x2="54.6" y2="543.2"/>
	<circle class="st4" cx="147.8" cy="383.8" r="10.3"/>
	<circle class="st4" cx="295.2" cy="483.7" r="10.3"/>
	<g id="circles">
		<g class="st1">
			<circle class="st5" cx="369.2" cy="418.7" r="46.4"/>
		</g>
		<g class="st1">
			<circle class="st5" cx="272.2" cy="824.9" r="46.4"/>
		</g>
		<g class="st1">
			<circle class="st5" cx="47.2" cy="679.9" r="46.4"/>
		</g>
		<g class="st1">
			<circle class="st5" cx="464.2" cy="1070.7" r="46.4"/>
		</g>
		<g class="st1">
			<circle class="st5" cx="291.2" cy="1241.7" r="46.4"/>
		</g>
		<rect x="-7.3" y="101.2" class="st6" width="614" height="1248"/>
	</g>
	<polyline class="st3" points="177.7,-126.2 272,50.5 -43.7,74.5 	"/>
	<line class="st3" x1="272.6" y1="52.2" x2="248.2" y2="257.1"/>
	<circle class="st4" cx="408.5" cy="523.1" r="10.5"/>
	<line class="st3" x1="427.4" y1="158" x2="92.6" y2="64.2"/>
	<polyline class="st3" points="246.7,254.8 422.6,157.4 273.1,49.9 	"/>
	<circle class="st4" cx="422.7" cy="157.7" r="10.3"/>
	<circle class="st4" cx="272.7" cy="49.7" r="10.3"/>
	<circle class="st4" cx="247.6" cy="254.5" r="10.3"/>
	<circle class="st4" cx="87.1" cy="783.9" r="10.5"/>
	<circle class="st4" cx="54.2" cy="543.9" r="10.5"/>
	<circle class="st4" cx="311.2" cy="928.7" r="10.5"/>
	<circle class="st4" cx="417.8" cy="1135.7" r="10.5"/>
	<line class="st3" x1="144" y1="-37.5" x2="92.6" y2="64.5"/>
	<circle class="st4" cx="92.6" cy="64.2" r="10.3"/>
</g>
<g id="CIRCLES">
	<g class="st7">
		<circle class="st2" cx="409.2" cy="522.7" r="46.4"/>
	</g>
	<g class="st7">
		<circle class="st2" cx="94.3" cy="1170.6" r="46.4"/>
	</g>
	<g class="st7">
		<circle class="st2" cx="312.2" cy="928.9" r="46.4"/>
	</g>
	<g class="st7">
		<circle class="st2" cx="87.2" cy="783.9" r="46.4"/>
	</g>
	<g class="st7">
		<circle class="st2" cx="504.2" cy="1174.7" r="46.4"/>
	</g>
	<g class="st7">
		<circle class="st2" cx="331.2" cy="1345.7" r="46.4"/>
	</g>
	<g class="st7">
		<circle class="st2" cx="147.4" cy="383.8" r="46.4"/>
	</g>
	<g class="st7">
		<circle class="st2" cx="273" cy="49.3" r="46.4"/>
	</g>
	<g id="circles_1_" class="st0">
		<g class="st1">
			<circle class="st5" cx="369.2" cy="418.7" r="46.4"/>
		</g>
		<g class="st1">
			<circle class="st5" cx="272.2" cy="824.9" r="46.4"/>
		</g>
		<g class="st1">
			<circle class="st5" cx="47.2" cy="679.9" r="46.4"/>
		</g>
		<g class="st1">
			<circle class="st5" cx="464.2" cy="1070.7" r="46.4"/>
		</g>
		<g class="st1">
			<circle class="st5" cx="291.2" cy="1241.7" r="46.4"/>
		</g>
		<rect x="-7.3" y="101.2" class="st6" width="614" height="1248"/>
	</g>
</g>
<g id="LINES" class="st0">
	<g class="st8">
		
			<rect x="238.3" y="1319.5" transform="matrix(0.9431 -0.3326 0.3326 0.9431 -458.2032 160.2233)" class="st2" width="1.2" height="198.4"/>
	</g>
	<g class="st8">
		
			<rect x="-105.9" y="1266.5" transform="matrix(0.6329 -0.7743 0.7743 0.6329 -974.4532 479.2811)" class="st2" width="248" height="1.2"/>
	</g>
	<g class="st8">
		
			<rect x="16.3" y="575.5" transform="matrix(0.8027 -0.5964 0.5964 0.8027 -408.5787 146.3869)" class="st2" width="1.2" height="230.4"/>
	</g>
	<g class="st8">
		
			<rect x="-17.5" y="472.1" transform="matrix(2.825178e-03 -1 1 2.825178e-03 -559.7773 524.5386)" class="st2" width="1.3" height="141.7"/>
	</g>
	<g class="st8">
		
			<rect x="-124.9" y="830.1" transform="matrix(0.9089 -0.417 0.417 0.9089 -347.6267 70.0402)" class="st2" width="222.8" height="1.3"/>
	</g>
	<g class="st8">
		
			<rect x="57.5" y="1357.4" transform="matrix(0.9075 -0.4201 0.4201 0.9075 -558.0765 182.3163)" class="st2" width="154.7" height="1.3"/>
	</g>
	<g class="st8">
		
			<rect x="-30.8" y="1280.9" transform="matrix(0.1437 -0.9896 0.9896 0.1437 -1199.6917 1176.4653)" class="st2" width="221.7" height="1.3"/>
	</g>
	<g class="st8">
		
			<rect x="36.5" y="960.3" transform="matrix(0.8593 -0.5114 0.5114 0.8593 -543.1872 169.8157)" class="st2" width="1.2" height="224.1"/>
	</g>
	<g class="st8">
		
			<rect x="87" y="894.4" transform="matrix(0.2632 -0.9647 0.9647 0.2632 -905.3091 825.2894)" class="st2" width="1.2" height="221.8"/>
	</g>
	<g class="st8">
		
			<rect x="176.9" y="381.2" transform="matrix(0.9773 -0.2119 0.2119 0.9773 -106.9602 49.5062)" class="st2" width="1.3" height="285.2"/>
	</g>
	<g class="st8">
		
			<rect x="333" y="435" transform="matrix(0.1336 -0.991 0.991 0.1336 -67.0447 794.5068)" class="st2" width="175.9" height="1.2"/>
	</g>
	<g class="st8">
		
			<rect x="171.8" y="782.8" transform="matrix(1.874671e-02 -0.9998 0.9998 1.874671e-02 -475.1988 1082.7079)" class="st2" width="284.5" height="1.3"/>
	</g>
	<g class="st8">
		<polygon class="st2" points="504.1,1175.4 196.4,1039 316.2,642.6 317.3,642.9 197.9,1038.3 504.6,1174.2 		"/>
	</g>
	<g class="st8">
		
			<rect x="264.5" y="1023.4" transform="matrix(0.9181 -0.3964 0.3964 0.9181 -450.489 202.7151)" class="st2" width="1.3" height="335.5"/>
	</g>
	<g class="st8">
		<polygon class="st2" points="332.2,1347.2 331.9,1347.1 205.5,1325.8 205.8,1324.5 331.8,1345.8 503.9,1175 504.8,1175.9 		"/>
	</g>
	<g class="st8">
		
			<rect x="203.9" y="1153.7" transform="matrix(0.3843 -0.9232 0.9232 0.3843 -812.6077 1090.1642)" class="st2" width="414.2" height="1.3"/>
	</g>
	<g class="st8">
		
			<rect x="449" y="519.7" transform="matrix(0.983 -0.1833 0.1833 0.983 -128.6604 95.0406)" class="st2" width="1.2" height="447.2"/>
	</g>
	<g class="st8">
		<polygon class="st2" points="492.2,969.6 206.9,663.3 431.7,348.7 245.8,255 246.3,253.9 433.6,348.2 208.6,663.2 493.1,968.7 		
			"/>
	</g>
	<g class="st8">
		
			<rect x="402.9" y="622.9" transform="matrix(0.8822 -0.4709 0.4709 0.8822 -331.0521 284.7379)" class="st2" width="1.3" height="362.1"/>
	</g>
	<g class="st8">
		<polygon class="st2" points="196.5,1038.3 310.8,928.2 311.7,929.1 200.8,1036 490.5,962.5 490.8,963.8 		"/>
	</g>
	<g class="st8">
		
			<rect x="400.3" y="854.6" transform="matrix(0.1888 -0.982 0.982 0.1888 -603.6483 1161.0046)" class="st2" width="1.2" height="182.7"/>
	</g>
	<g class="st8">
		
			<rect x="201.4" y="1037.1" transform="matrix(0.9997 -2.545528e-02 2.545528e-02 0.9997 -30.0011 5.5243)" class="st2" width="1.3" height="288.1"/>
	</g>
	<g class="st8">
		
			<rect x="142" y="772" transform="matrix(0.9146 -0.4044 0.4044 0.9146 -356.0179 135.4583)" class="st2" width="1.3" height="277"/>
	</g>
	<g class="st8">
		
			<rect x="62.2" y="722.9" transform="matrix(0.7075 -0.7067 0.7067 0.7075 -468.2151 315.8459)" class="st2" width="170.6" height="1.3"/>
	</g>
	<g class="st8">
		
			<rect x="-84.4" y="583.5" transform="matrix(0.1501 -0.9887 0.9887 0.1501 -477.6276 612.7423)" class="st2" width="404" height="1.2"/>
	</g>
	<g class="st8">
		
			<rect x="185.7" y="592.5" transform="matrix(0.8198 -0.5726 0.5726 0.8198 -284.1186 283.3096)" class="st2" width="244.9" height="1.2"/>
	</g>
	<g class="st8">
		
			<rect x="91.8" y="1153.4" transform="matrix(0.9948 -0.1023 0.1023 0.9948 -116.7268 31.6346)" class="st2" width="316.6" height="1.3"/>
	</g>
	<g class="st8">
		
			<rect x="39.3" y="1404.6" transform="matrix(0.6281 -0.7781 0.7781 0.6281 -1040.8539 632.6557)" class="st2" width="204.3" height="1.3"/>
	</g>
	<g class="st8">
		
			<rect x="327.3" y="232.4" transform="matrix(0.857 -0.5152 0.5152 0.857 -153.5039 224.5475)" class="st2" width="1.3" height="313.1"/>
	</g>
	<g class="st8">
		<circle class="st10" cx="316.4" cy="644.4" r="10.5"/>
	</g>
	<g class="st8">
		<circle class="st10" cx="249.3" cy="1153.7" r="10.5"/>
	</g>
	<g class="st8">
		<circle class="st10" cx="331.4" cy="1345.5" r="10.5"/>
	</g>
	<g class="st8">
		<circle class="st10" cx="490.6" cy="963.2" r="10.5"/>
	</g>
	<g class="st8">
		<circle class="st10" cx="504" cy="1175.1" r="10.5"/>
	</g>
	<g class="st8">
		<circle class="st10" cx="432.4" cy="348.1" r="10.5"/>
	</g>
	<g class="st8">
		<circle class="st10" cx="198.6" cy="1037.2" r="10.5"/>
	</g>
	<g class="st8">
		<circle class="st10" cx="207.8" cy="663.2" r="10.5"/>
	</g>
	<g class="st8">
		<circle class="st10" cx="63.8" cy="1390.7" r="10.5"/>
	</g>
	<g class="st8">
		<circle class="st10" cx="95.6" cy="1170.2" r="10.5"/>
	</g>
	<g class="st8">
		<circle class="st10" cx="205.6" cy="1325.2" r="10.5"/>
	</g>
	<g class="st8">
		
			<rect x="193.8" y="38" transform="matrix(0.8985 -0.4389 0.4389 0.8985 -100.1645 113.0776)" class="st2" width="1.2" height="470.4"/>
	</g>
	<g class="st8">
		<polygon class="st2" points="54.6,543.2 53.4,543.1 92.4,59.2 148.4,383.7 147.1,383.9 92.9,69.1 		"/>
	</g>
	<g class="st8">
		<polygon class="st2" points="54.1,545.1 53.8,543.9 294.1,483.9 147.4,384.3 148.1,383.2 297.2,484.4 		"/>
	</g>
	<g class="st8">
		
			<rect x="9.5" y="463.7" transform="matrix(0.5062 -0.8624 0.8624 0.5062 -350.5823 316.3563)" class="st2" width="182.9" height="1.3"/>
	</g>
	<g class="st8">
		<circle class="st10" cx="147.8" cy="383.8" r="10.3"/>
	</g>
	<g class="st8">
		<circle class="st10" cx="295.2" cy="483.7" r="10.3"/>
	</g>
	<g id="circles_2_">
		<g class="st1">
			<circle class="st5" cx="369.2" cy="418.7" r="46.4"/>
		</g>
		<g class="st1">
			<circle class="st5" cx="272.2" cy="824.9" r="46.4"/>
		</g>
		<g class="st1">
			<circle class="st5" cx="47.2" cy="679.9" r="46.4"/>
		</g>
		<g class="st1">
			<circle class="st5" cx="464.2" cy="1070.7" r="46.4"/>
		</g>
		<g class="st1">
			<circle class="st5" cx="291.2" cy="1241.7" r="46.4"/>
		</g>
		<rect x="-7.3" y="101.2" class="st6" width="614" height="1248"/>
	</g>
	<g class="st8">
		<polygon class="st2" points="-43.6,75.1 -43.7,73.9 271,49.9 177.2,-125.9 178.3,-126.5 273,51 272,51.1 		"/>
	</g>
	<g class="st8">
		
			<rect x="157.2" y="154" transform="matrix(0.1187 -0.9929 0.9929 0.1187 75.9564 394.8262)" class="st2" width="206.4" height="1.3"/>
	</g>
	<g class="st8">
		<circle class="st10" cx="408.5" cy="523.1" r="10.5"/>
	</g>
	<g class="st8">
		
			<rect x="259.4" y="-62.7" transform="matrix(0.27 -0.9629 0.9629 0.27 82.8527 331.4564)" class="st2" width="1.2" height="347.7"/>
	</g>
	<g class="st8">
		<polygon class="st2" points="247,255.3 246.4,254.2 421.4,157.3 272.7,50.4 273.4,49.3 423.7,157.4 		"/>
	</g>
	<g class="st8">
		<circle class="st10" cx="422.7" cy="157.7" r="10.3"/>
	</g>
	<g class="st8">
		<circle class="st10" cx="272.7" cy="49.7" r="10.3"/>
	</g>
	<g class="st8">
		<circle class="st10" cx="247.6" cy="254.5" r="10.3"/>
	</g>
	<g class="st8">
		<circle class="st10" cx="87.1" cy="783.9" r="10.5"/>
	</g>
	<g class="st8">
		<circle class="st10" cx="54.2" cy="543.9" r="10.5"/>
	</g>
	<g class="st8">
		<circle class="st10" cx="311.2" cy="928.7" r="10.5"/>
	</g>
	<g class="st8">
		<circle class="st10" cx="417.8" cy="1135.7" r="10.5"/>
	</g>
	<g class="st8">
		
			<rect x="61.2" y="12.9" transform="matrix(0.4494 -0.8933 0.8933 0.4494 53.0999 113.1199)" class="st2" width="114.2" height="1.2"/>
	</g>
	<g class="st8">
		<circle class="st10" cx="92.6" cy="64.2" r="10.3"/>
	</g>
</g>
</svg>
