<?xml version="1.0" encoding="utf-8"?>
<!-- Generator: Adobe Illustrator 21.1.0, SVG Export Plug-In . SVG Version: 6.00 Build 0)  -->
<svg version="1.1" id="Layer_1" xmlns="http://www.w3.org/2000/svg" xmlns:xlink="http://www.w3.org/1999/xlink" x="0px" y="0px"
	 viewBox="0 0 822.9 146.5" style="enable-background:new 0 0 822.9 146.5;" xml:space="preserve">
<style type="text/css">
	.st0{opacity:0.7;fill:#FFFFFF;enable-background:new    ;}
	.st1{fill:#FFFFFF;}
</style>
<g>
	<g>
		
			<rect x="24.9" y="66.6" transform="matrix(-1.836970e-16 1 -1 -1.836970e-16 171.3057 22.1057)" class="st0" width="99.4" height="60.2"/>
		<rect y="0.1" class="st1" width="149.2" height="46.9"/>
	</g>
	<g>
		<rect x="350.1" y="0.1" class="st1" width="60" height="146.3"/>
		<path class="st0" d="M424.3,101.1l-14.2,0V0.1l14.2,0C497.3,0.1,497.4,101.1,424.3,101.1z"/>
	</g>
	<g>
		<polygon class="st1" points="741.2,0 741.2,146.5 681,146.5 681,0.1 		"/>
		<path class="st0" d="M741.2,146.5c108.9,0,108.9-146.5,0-146.5V146.5z"/>
	</g>
	<g>
		<polygon class="st0" points="230.9,117.1 212.9,146.4 141.7,146.4 195,59 		"/>
		<polygon class="st1" points="231,0.1 320.3,146.4 249,146.4 195,59 		"/>
	</g>
	<g>
		<polygon class="st1" points="597.9,59 543.9,146.4 472.6,146.4 561.9,0.1 		"/>
		<polygon class="st0" points="597.9,59 651.2,146.4 580,146.4 562,117.1 		"/>
	</g>
</g>
</svg>
