<?xml version="1.0" encoding="utf-8"?>
<!-- Generator: Adobe Illustrator 22.0.1, SVG Export Plug-In . SVG Version: 6.00 Build 0)  -->
<svg version="1.1" xmlns="http://www.w3.org/2000/svg" xmlns:xlink="http://www.w3.org/1999/xlink" x="0px" y="0px"
	 viewBox="0 0 600 1450" style="enable-background:new 0 0 600 1450;" xml:space="preserve">
<style type="text/css">
	.st0{display:none;}
	.st1{display:inline;}
	.st2{opacity:0.26;}
	.st3{fill:#2C96FF;}
	.st4{display:inline;fill:none;stroke:#2C96FF;stroke-width:1.25;stroke-miterlimit:10;}
	.st5{display:inline;fill:#FF2964;}
	.st6{display:inline;fill:none;stroke:#005EC8;stroke-width:1.25;stroke-miterlimit:10;}
	.st7{fill:none;}
	.st8{fill:#FF2964;}
</style>
<g id="OG" class="st0">
	<g class="st1">
		<g class="st2">
			<circle class="st3" cx="504.3" cy="682.2" r="46.4"/>
		</g>
		<g class="st2">
			<circle class="st3" cx="285.3" cy="894.7" r="46.4"/>
		</g>
		<g class="st2">
			<circle class="st3" cx="226.3" cy="1392.7" r="46.4"/>
		</g>
		<g class="st2">
			<circle class="st3" cx="250.3" cy="453.2" r="46.4"/>
		</g>
		<g class="st2">
			<circle class="st3" cx="382.3" cy="1053.7" r="46.4"/>
		</g>
		<g class="st2">
			<circle class="st3" cx="485" cy="158.4" r="46.4"/>
		</g>
		<g class="st2">
			<circle class="st3" cx="75" cy="114.3" r="46.4"/>
		</g>
	</g>
	<line class="st4" x1="739" y1="240.2" x2="341.9" y2="573"/>
	<line class="st4" x1="112.3" y1="269.6" x2="341.7" y2="572.4"/>
	<line class="st4" x1="85.8" y1="571.9" x2="341.7" y2="572.9"/>
	<line class="st4" x1="341.4" y1="572.7" x2="137.3" y2="994.6"/>
	<polyline class="st4" points="482,826.3 550.4,397.9 111.4,268.2 	"/>
	<line class="st4" x1="341.5" y1="573.6" x2="482" y2="826.6"/>
	<line class="st4" x1="756.9" y1="1343" x2="78.8" y2="1187.1"/>
	<polyline class="st4" points="273.3,-67.4 482.1,826.6 382.3,1054.6 	"/>
	<line class="st4" x1="481.6" y1="826.2" x2="702.3" y2="913.6"/>
	<polyline class="st4" points="550.3,398.6 690.1,577.7 505.6,681.2 	"/>
	<polyline class="st4" points="380.9,1054.9 341.5,573.6 284.9,894.6 	"/>
	<polyline class="st4" points="284.9,894.6 137.3,994.6 381.1,1055.4 	"/>
	<polyline class="st4" points="285.4,896.4 380.6,1055.2 756.9,1343 	"/>
	<polyline class="st4" points="284.6,894.2 90.6,571.2 250.1,453.7 	"/>
	<line class="st4" x1="382.4" y1="1054.3" x2="415.9" y2="1331.6"/>
	<line class="st4" x1="226.7" y1="1392.7" x2="415.9" y2="1331.6"/>
	<line class="st4" x1="415.9" y1="1331.6" x2="577.3" y2="1502.6"/>
	<line class="st4" x1="415.6" y1="1331.1" x2="334.6" y2="1570.1"/>
	<circle class="st5" cx="482.1" cy="826.6" r="10.3"/>
	<circle class="st5" cx="504.8" cy="681.5" r="10.3"/>
	<circle class="st5" cx="284.9" cy="894.6" r="10.3"/>
	<circle class="st5" cx="341.5" cy="573.6" r="10.3"/>
	<circle class="st5" cx="90.5" cy="571.6" r="10.3"/>
	<circle class="st5" cx="137.5" cy="994.6" r="10.3"/>
	<line class="st4" x1="646.3" y1="-4.4" x2="483.3" y2="158.6"/>
	<line class="st4" x1="514.6" y1="-101.5" x2="321.3" y2="138.6"/>
	<line class="st4" x1="515.3" y1="-102.2" x2="484.3" y2="158.6"/>
	<line class="st4" x1="737.3" y1="240.6" x2="483.3" y2="158.6"/>
	<line class="st4" x1="368.3" y1="344.6" x2="484.9" y2="160.4"/>
	<line class="st4" x1="74.3" y1="112.6" x2="248.5" y2="-58.2"/>
	<line class="st4" x1="112.3" y1="267.6" x2="247.9" y2="-56.5"/>
	<line class="st4" x1="430.3" y1="-37.4" x2="549.3" y2="399.6"/>
	<line class="st4" x1="74.8" y1="113.6" x2="486.6" y2="158.8"/>
	<line class="st4" x1="113.3" y1="268.6" x2="321.3" y2="139.6"/>
	<circle class="st5" cx="321" cy="140.3" r="10.5"/>
	<circle class="st5" cx="75.2" cy="113.9" r="10.5"/>
	<circle class="st5" cx="483.6" cy="158.8" r="10.5"/>
	<circle class="st5" cx="367.6" cy="344.8" r="10.5"/>
	<circle class="st5" cx="250.5" cy="453.6" r="10.3"/>
	<circle class="st5" cx="549.8" cy="398.5" r="10.3"/>
	<circle class="st5" cx="112.5" cy="269.6" r="10.3"/>
	<line class="st4" x1="681.3" y1="1044.6" x2="415.7" y2="1330.1"/>
	<circle class="st5" cx="415.9" cy="1331.6" r="10.3"/>
	<line class="st4" x1="79.3" y1="1186.6" x2="703.3" y2="913.6"/>
	<circle class="st5" cx="78.8" cy="1187.1" r="10.3"/>
	<line class="st4" x1="226.8" y1="1393.1" x2="382.8" y2="1054.1"/>
	<circle class="st5" cx="382.4" cy="1054.3" r="10.3"/>
	<circle class="st5" cx="226.7" cy="1392.7" r="10.3"/>
	<circle class="st5" cx="298.4" cy="1236.8" r="10.3"/>
</g>
<g id="CIRCLES" class="st0">
	<g class="st1">
		<g class="st2">
			<circle class="st3" cx="504.3" cy="682.2" r="46.4"/>
		</g>
		<g class="st2">
			<circle class="st3" cx="285.3" cy="894.7" r="46.4"/>
		</g>
		<g class="st2">
			<circle class="st3" cx="226.3" cy="1392.7" r="46.4"/>
		</g>
		<g class="st2">
			<circle class="st3" cx="250.3" cy="453.2" r="46.4"/>
		</g>
		<g class="st2">
			<circle class="st3" cx="382.3" cy="1053.7" r="46.4"/>
		</g>
		<g class="st2">
			<circle class="st3" cx="485" cy="158.4" r="46.4"/>
		</g>
		<g class="st2">
			<circle class="st3" cx="75" cy="114.3" r="46.4"/>
		</g>
	</g>
</g>
<g id="LINES">
	<g>
		<path class="st7" d="M494.2,158.8c0,0.9-0.1,1.7-0.3,2.5l106,34.2V43L491.2,151.6C493,153.5,494.2,156,494.2,158.8z"/>
		<path class="st7" d="M560.1,398.5c0,3-1.3,5.6-3.3,7.5l43,55V357.7l-41.6,34.8C559.4,394.2,560.1,396.3,560.1,398.5z"/>
		<path class="st7" d="M335.5,565.2L257,461.6c-1.8,1.4-4,2.3-6.5,2.3c-3.2,0-6-1.5-7.9-3.7L99,565.8c1.1,1.6,1.7,3.5,1.7,5.5
			l230.5,0.9C331.7,569.3,333.2,566.8,335.5,565.2z"/>
		<path class="st7" d="M515.1,681.5c0,5.7-4.6,10.3-10.3,10.3c-0.2,0-0.5,0-0.7,0l-19.9,124.8c4.7,1,8.2,5.1,8.2,10.1
			c0,1.1-0.2,2.1-0.5,3l107.9,42.7V629.1l-85.6,48C514.8,678.5,515.1,679.9,515.1,681.5z"/>
		<path class="st7" d="M549.8,408.8c-0.2,0-0.3,0-0.5,0l-41.9,262.8c2.6,0.7,4.8,2.3,6.2,4.6l86.2-48.4V463l-43.9-56.3
			C554.2,408,552.1,408.8,549.8,408.8z"/>
		<path class="st7" d="M487.1,168.8l59.9,219.8c0.9-0.3,1.9-0.4,2.9-0.4c3,0,5.8,1.3,7.6,3.4l42.3-35.5V196.9l-106.3-34.3
			C492.3,165.5,490,167.8,487.1,168.8z"/>
		<path class="st7" d="M373.1,335.9l106-167.6c-3.5-1.7-6-5.3-6-9.5c0-0.3,0-0.6,0-0.8l-141.9-15.6c-0.7,3.6-3.3,6.5-6.6,7.7
			l43,184.2C369.7,334.4,371.5,334.9,373.1,335.9z"/>
		<path class="st7" d="M308,1240.4c-1.5,3.9-5.2,6.7-9.6,6.7c-1.2,0-2.4-0.2-3.4-0.6l-63.1,137.2c2,1.2,3.6,3,4.5,5.2l169.6-54.7
			c-0.2-0.8-0.3-1.7-0.3-2.6c0-5.1,3.6-9.2,8.4-10.1l-7-58.3L308,1240.4z"/>
		<path class="st7" d="M480.4,148.9L438.3-5.6L327.4,132c2.5,1.9,4.1,4.9,4.1,8.3c0,0.3,0,0.6,0,0.8l141.9,15.6
			C474.1,153,476.8,150,480.4,148.9z"/>
		<path class="st7" d="M240.3-49.2L82,105.9c2.3,1.9,3.7,4.8,3.7,8c0,0.1,0,0.2,0,0.3l86.1,9.5L243.3-47
			C242.2-47.6,241.2-48.3,240.3-49.2z"/>
		<path class="st7" d="M341.5,563.3c2.9,0,5.5,1.2,7.4,3.1l60-50.3l-37.7-161.4c-1.1,0.4-2.3,0.6-3.6,0.6c-5.8,0-10.5-4.7-10.5-10.5
			c0-1.1,0.2-2.2,0.5-3.2l-235.2-69.5c-0.6,2.1-1.8,4-3.4,5.4l126.6,167c1.5-0.8,3.1-1.2,4.9-1.2c5.7,0,10.3,4.6,10.3,10.3
			c0,2.8-1.1,5.3-2.9,7.2l78.7,103.8C338,563.7,339.7,563.3,341.5,563.3z"/>
		<path class="st7" d="M366.5,334.4l-42.9-183.9c-0.8,0.2-1.6,0.3-2.5,0.3c-3.7,0-7-1.9-8.8-4.8L121.4,264.4
			c0.9,1.5,1.4,3.3,1.4,5.2c0,0.5,0,0.9-0.1,1.4l235.4,69.6C359.6,337.2,362.7,334.8,366.5,334.4z"/>
		<path class="st7" d="M274.6,894.6c0-3.5,1.8-6.6,4.5-8.5L230,804.5l-87.6,181.1c1.3,0.7,2.3,1.6,3.2,2.7L276,899.9
			C275.1,898.4,274.6,896.6,274.6,894.6z"/>
		<path class="st7" d="M373.2,1058.8L88.4,1183.3c0.5,1.2,0.7,2.4,0.7,3.7c0,0.6-0.1,1.1-0.2,1.7l199.4,45.8c1-4.6,5.1-8.1,10-8.1
			c1.4,0,2.8,0.3,4,0.8l75.4-163.9C375.8,1062.5,374.2,1060.8,373.2,1058.8z"/>
		<path class="st7" d="M331.2,573.6C331.2,573.5,331.2,573.5,331.2,573.6l-230.5-1c-0.3,3-1.9,5.6-4.2,7.3l133.3,222l106.2-219.5
			C333.1,580.5,331.2,577.3,331.2,573.6z"/>
		<path class="st7" d="M383.1,1064.6c-0.2,0-0.4,0-0.6,0c-1.2,0-2.4-0.2-3.5-0.6l-75.4,163.9c3.1,1.8,5.2,5.1,5.2,8.9
			c0,0.8-0.1,1.6-0.3,2.4l98.5,22.6L383.1,1064.6z"/>
		<path class="st7" d="M286.1,884.4l53-300.9c-0.7-0.2-1.3-0.4-1.9-0.7L230.6,803.1l49.5,82.4c1.4-0.7,3-1.2,4.8-1.2
			C285.3,884.4,285.7,884.4,286.1,884.4z"/>
		<path class="st7" d="M284.9,904.9c-3.3,0-6.3-1.6-8.1-4l-130.4,88.4c0.9,1.5,1.5,3.3,1.5,5.3c0,0.7-0.1,1.4-0.2,2l224.7,56
			c0.4-2.1,1.3-3.9,2.7-5.4L289.2,904C287.9,904.6,286.4,904.9,284.9,904.9z"/>
		<path class="st7" d="M471.8,826.6c0-3.6,1.9-6.8,4.7-8.7L345.9,582.8c-0.9,0.4-1.9,0.8-3,0.9l37.7,460.4c0.6-0.1,1.2-0.2,1.8-0.2
			c1.2,0,2.4,0.2,3.5,0.6l91.4-208.9C474.1,834.1,471.8,830.6,471.8,826.6z"/>
		<polygon class="st7" points="599.8,1222.1 599.8,1133.2 551.5,1185.1 		"/>
		<polygon class="st7" points="467.2,1275.7 599.8,1306.2 599.8,1223.6 550.6,1186 		"/>
		<path class="st7" d="M341.5,583.9c-0.4,0-0.8,0-1.2-0.1l-53,300.9c4.5,1.1,7.9,5.1,7.9,10c0,3.7-2,6.9-4.9,8.8l85.7,142.9
			c1-0.8,2.2-1.5,3.4-1.8l-37.7-460.6C341.6,583.8,341.6,583.9,341.5,583.9z"/>
		<path class="st7" d="M482.1,836.9c-1.2,0-2.4-0.2-3.5-0.6l-91.4,208.9c1.8,0.9,3.4,2.4,4.4,4.2l208.3-91.1v-84.5l-108.3-42.9
			C489.9,834.4,486.3,836.9,482.1,836.9z"/>
		<path class="st7" d="M372.4,354.2l37.6,161l131.7-110.4c-1.4-1.7-2.2-3.9-2.2-6.3c0-1,0.2-2,0.4-3l-162.2-47.9
			C377,350.5,375,352.9,372.4,354.2z"/>
		<path class="st7" d="M392.7,1054.3c0,2.8-1.1,5.3-2.9,7.2l160.7,122.9l49.3-53V959.6L392,1050.5
			C392.5,1051.7,392.7,1053,392.7,1054.3z"/>
		<path class="st7" d="M384.3,1064.4l23.8,197.7l57.6,13.2l83.9-90.1l-160.7-122.9C387.6,1063.4,386,1064.1,384.3,1064.4z"/>
		<path class="st7" d="M480.3,816.5c0.6-0.1,1.1-0.2,1.7-0.2c0.3,0,0.6,0,0.9,0l19.9-124.8c-4.8-0.9-8.4-5.1-8.4-10.1
			c0-5.7,4.6-10.3,10.3-10.3c0.4,0,0.9,0,1.3,0.1L548,408.6c-2.1-0.4-4.1-1.4-5.5-2.9L410.3,516.5L480.3,816.5z"/>
		<path class="st7" d="M484.9,148.4l28.5-239.9c-1.6-0.3-3.1-1.1-4.4-2.1L439.2-6.8l42.3,155.4c0.7-0.1,1.4-0.2,2.1-0.2
			C484.1,148.3,484.5,148.4,484.9,148.4z"/>
		<path class="st7" d="M349.7,567.3c1.3,1.7,2.1,3.9,2.1,6.2c0,3.6-1.9,6.8-4.8,8.7l130.6,235.1c0.5-0.2,1-0.4,1.5-0.6l-69.9-299.3
			L349.7,567.3z"/>
		<path class="st7" d="M310.5,140.3c0-0.1,0-0.1,0-0.2L172.7,125L116.2,260c1.8,0.7,3.3,1.9,4.5,3.4l190.9-118.4
			C310.9,143.5,310.5,142,310.5,140.3z"/>
		<path class="st7" d="M415.3,1321.3c0.2,0,0.4,0,0.6,0c2.1,0,4,0.6,5.6,1.7l43.3-46.5l-56.5-13L415.3,1321.3z"/>
		<path class="st7" d="M378.2,344.8c0,0.5,0,1-0.1,1.5l162.4,48c1-2.4,3-4.3,5.4-5.3l-59.9-219.9c-0.7,0.2-1.5,0.2-2.2,0.2
			c-1.2,0-2.3-0.2-3.4-0.6L374.1,336.6C376.6,338.5,378.2,341.5,378.2,344.8z"/>
		<path class="st3" d="M410.3,516.5l132.2-110.8c-0.3-0.3-0.6-0.6-0.8-0.9L410,515.2L410.3,516.5z"/>
		<path class="st3" d="M409.2,517.4l-0.3-1.4l-60,50.3c0.3,0.3,0.6,0.6,0.8,1L409.2,517.4z"/>
		<path class="st3" d="M558.2,392.6l41.6-34.8v-1.6l-42.3,35.5C557.7,391.9,558,392.2,558.2,392.6z"/>
		<path class="st3" d="M336.5,564.5l-78.7-103.8c-0.3,0.3-0.6,0.6-0.9,0.8l78.5,103.6C335.8,565,336.2,564.7,336.5,564.5z"/>
		<path class="st3" d="M119,277.5c-0.3,0.3-0.7,0.5-1,0.7l126.5,166.9c0.3-0.2,0.7-0.5,1.1-0.7L119,277.5z"/>
		<path class="st3" d="M331.3,572.2l-230.5-0.9c0,0.1,0,0.1,0,0.2c0,0.4,0,0.7-0.1,1l230.5,0.9C331.2,573,331.2,572.6,331.3,572.2z"
			/>
		<path class="st3" d="M230,804.5l-0.8-1.3l-88,181.8c0.4,0.2,0.8,0.3,1.1,0.5L230,804.5z"/>
		<path class="st3" d="M336.1,582.3L229.9,801.8l0.8,1.3l106.5-220.2C336.8,582.7,336.4,582.5,336.1,582.3z"/>
		<path class="st3" d="M358.1,340.5l-235.4-69.6c-0.1,0.4-0.1,0.8-0.2,1.2l235.2,69.5C357.8,341.2,357.9,340.9,358.1,340.5z"/>
		<path class="st3" d="M539.9,395.5c0.1-0.4,0.3-0.8,0.4-1.2l-162.4-48c-0.1,0.4-0.1,0.8-0.3,1.2L539.9,395.5z"/>
		<path class="st3" d="M482.9,816.4c0.4,0,0.8,0.1,1.2,0.2l19.9-124.8c-0.4,0-0.8-0.1-1.2-0.2L482.9,816.4z"/>
		<path class="st3" d="M506.1,671.3c0.4,0.1,0.8,0.1,1.2,0.2l41.9-262.8c-0.4,0-0.8-0.1-1.2-0.1L506.1,671.3z"/>
		<path class="st3" d="M347,582.2c-0.4,0.2-0.7,0.4-1.1,0.6L476.5,818c0.3-0.2,0.7-0.4,1.1-0.6L347,582.2z"/>
		<polygon class="st3" points="408.3,1263.5 464.8,1276.5 465.8,1275.4 408.1,1262.1 		"/>
		<polygon class="st3" points="467.2,1275.7 466.2,1276.8 599.8,1307.5 599.8,1306.2 		"/>
		<path class="st3" d="M406.9,1261.8l-98.5-22.6c-0.1,0.4-0.2,0.8-0.4,1.2l99,22.8L406.9,1261.8z"/>
		<path class="st3" d="M88.9,1188.8c-0.1,0.4-0.2,0.8-0.3,1.2l199.5,45.9c0-0.4,0.1-0.8,0.2-1.2L88.9,1188.8z"/>
		<path class="st3" d="M477.4,835.8L386,1044.6c0.4,0.1,0.8,0.3,1.1,0.5l91.4-208.9C478.1,836.1,477.8,836,477.4,835.8z"/>
		<path class="st3" d="M273.9-67.5l-1.2,0.3l46.1,197.3c0.4-0.1,0.8-0.2,1.2-0.2L273.9-67.5z"/>
		<path class="st3" d="M367.7,334.3C367.7,334.3,367.7,334.3,367.7,334.3l-42.9-184.2c-0.4,0.1-0.8,0.3-1.2,0.4l42.9,183.9
			C366.9,334.4,367.3,334.3,367.7,334.3z"/>
		<path class="st3" d="M479.1,816.8c0.4-0.1,0.8-0.2,1.2-0.3l-70.1-299.9l-0.3-1.4l-37.6-161c-0.4,0.2-0.8,0.4-1.2,0.5l37.7,161.4
			l0.3,1.4L479.1,816.8z"/>
		<path class="st3" d="M491.5,830.8l108.3,42.9v-1.3l-107.9-42.7C491.8,830,491.6,830.4,491.5,830.8z"/>
		<path class="st3" d="M514.2,677.2l85.6-48v-1.4l-86.2,48.4C513.8,676.4,514,676.8,514.2,677.2z"/>
		<path class="st3" d="M555.9,406.8l43.9,56.3v-2l-43-55C556.5,406.3,556.2,406.5,555.9,406.8z"/>
		<path class="st3" d="M286.1,884.4c0.4,0,0.8,0.1,1.2,0.2l53-300.9c-0.4,0-0.8-0.1-1.2-0.2L286.1,884.4z"/>
		<path class="st3" d="M341.7,583.8l37.7,460.6c0.4-0.1,0.8-0.2,1.2-0.3l-37.7-460.4C342.5,583.8,342.1,583.8,341.7,583.8z"/>
		<path class="st3" d="M276,899.9l-130.4,88.4c0.3,0.3,0.5,0.7,0.7,1l130.4-88.4C276.5,900.6,276.3,900.2,276,899.9z"/>
		<path class="st3" d="M147.6,996.6c-0.1,0.4-0.2,0.8-0.3,1.2l224.9,56c0-0.4,0.1-0.8,0.1-1.3L147.6,996.6z"/>
		<path class="st3" d="M289.2,904l85.8,143.2c0.3-0.3,0.6-0.6,0.9-0.9l-85.7-142.9C289.9,903.6,289.6,903.8,289.2,904z"/>
		<path class="st3" d="M388.9,1062.3l160.7,122.9l0.9-0.9l-160.7-122.9C389.5,1061.8,389.2,1062.1,388.9,1062.3z"/>
		<polygon class="st3" points="550.6,1186 599.8,1223.6 599.8,1222.1 551.5,1185.1 		"/>
		<path class="st3" d="M242.5,460.1c-0.3-0.3-0.5-0.7-0.7-1L98.3,564.8c0.3,0.3,0.5,0.6,0.8,1L242.5,460.1z"/>
		<path class="st3" d="M279.1,886.2c0.3-0.2,0.7-0.4,1.1-0.6l-49.5-82.4l-0.8-1.3l-133.3-222c-0.3,0.2-0.7,0.5-1,0.7l133.7,222.6
			l0.8,1.3L279.1,886.2z"/>
		<path class="st3" d="M408.1,1262.1l-23.8-197.7c-0.4,0.1-0.8,0.1-1.2,0.1l23.8,197.3l0.2,1.3l7,58.3c0.4-0.1,0.8-0.1,1.2-0.1
			l-7-57.9L408.1,1262.1z"/>
		<path class="st3" d="M236.3,1388.9c0.2,0.4,0.3,0.8,0.4,1.2l169.6-54.7c-0.2-0.4-0.3-0.8-0.4-1.2L236.3,1388.9z"/>
		<path class="st3" d="M422.5,1339.5l154.3,163.6l0.9-0.9l-154.3-163.6C423.1,1339,422.8,1339.2,422.5,1339.5z"/>
		<path class="st3" d="M334.1,1569.9l1.2,0.4l77.6-228.9c-0.4-0.1-0.8-0.3-1.2-0.5L334.1,1569.9z"/>
		<path class="st8" d="M482.1,816.3c-0.6,0-1.2,0.1-1.7,0.2c-0.4,0.1-0.8,0.2-1.2,0.3c-0.5,0.2-1,0.4-1.5,0.6
			c-0.4,0.2-0.7,0.4-1.1,0.6c-2.8,1.8-4.7,5-4.7,8.7c0,4,2.3,7.5,5.6,9.2c0.4,0.2,0.8,0.4,1.1,0.5c1.1,0.4,2.3,0.6,3.5,0.6
			c4.2,0,7.8-2.5,9.4-6.1c0.2-0.4,0.3-0.8,0.4-1.2c0.3-1,0.5-2,0.5-3c0-5-3.5-9.1-8.2-10.1c-0.4-0.1-0.8-0.1-1.2-0.2
			C482.7,816.3,482.4,816.3,482.1,816.3z"/>
		<path class="st8" d="M504.8,671.2c-5.7,0-10.3,4.6-10.3,10.3c0,5,3.6,9.2,8.4,10.1c0.4,0.1,0.8,0.1,1.2,0.2c0.2,0,0.5,0,0.7,0
			c5.7,0,10.3-4.6,10.3-10.3c0-1.5-0.3-3-0.9-4.3c-0.2-0.4-0.4-0.7-0.6-1.1c-1.4-2.2-3.6-3.9-6.2-4.6c-0.4-0.1-0.8-0.2-1.2-0.2
			C505.7,671.2,505.3,671.2,504.8,671.2z"/>
		<path class="st8" d="M274.6,894.6c0,1.9,0.5,3.7,1.4,5.2c0.2,0.4,0.4,0.7,0.7,1c1.9,2.4,4.8,4,8.1,4c1.5,0,3-0.3,4.3-1
			c0.4-0.2,0.7-0.4,1.1-0.6c2.9-1.8,4.9-5.1,4.9-8.8c0-4.9-3.4-8.9-7.9-10c-0.4-0.1-0.8-0.2-1.2-0.2c-0.4,0-0.8-0.1-1.2-0.1
			c-1.7,0-3.3,0.4-4.8,1.2c-0.4,0.2-0.7,0.4-1.1,0.6C276.4,888,274.6,891.1,274.6,894.6z"/>
		<path class="st8" d="M351.8,573.6c0-2.3-0.8-4.5-2.1-6.2c-0.3-0.3-0.5-0.7-0.8-1c-1.9-1.9-4.5-3.1-7.4-3.1c-1.8,0-3.5,0.5-4.9,1.3
			c-0.4,0.2-0.7,0.4-1.1,0.7c-2.3,1.6-3.8,4.1-4.2,7c-0.1,0.4-0.1,0.8-0.1,1.2c0,0,0,0.1,0,0.1c0,3.7,2,6.9,4.9,8.8
			c0.4,0.2,0.7,0.4,1.1,0.6c0.6,0.3,1.2,0.5,1.9,0.7c0.4,0.1,0.8,0.2,1.2,0.2c0.4,0,0.8,0.1,1.2,0.1c0.1,0,0.1,0,0.2,0
			c0.4,0,0.8,0,1.2-0.1c1.1-0.1,2.1-0.5,3-0.9c0.4-0.2,0.7-0.4,1.1-0.6C349.9,580.4,351.8,577.2,351.8,573.6z"/>
		<path class="st8" d="M100.7,572.6c0-0.3,0.1-0.7,0.1-1c0-0.1,0-0.1,0-0.2c0-2-0.7-3.9-1.7-5.5c-0.2-0.3-0.5-0.7-0.8-1
			c-1.9-2.2-4.7-3.6-7.8-3.6c-5.7,0-10.3,4.6-10.3,10.3c0,5.7,4.6,10.3,10.3,10.3c1.8,0,3.5-0.5,5-1.3c0.4-0.2,0.7-0.4,1-0.7
			C98.8,578.2,100.4,575.6,100.7,572.6z"/>
		<path class="st8" d="M147.8,994.6c0-1.9-0.5-3.7-1.5-5.3c-0.2-0.4-0.4-0.7-0.7-1c-0.9-1.1-2-2.1-3.2-2.7c-0.4-0.2-0.7-0.4-1.1-0.5
			c-1.2-0.5-2.4-0.7-3.8-0.7c-5.7,0-10.3,4.6-10.3,10.3c0,5.7,4.6,10.3,10.3,10.3c4.6,0,8.4-3,9.8-7.1c0.1-0.4,0.2-0.8,0.3-1.2
			C147.7,995.9,147.8,995.2,147.8,994.6z"/>
		<path class="st3" d="M491.2,151.6L599.8,43v-1.8L490.3,150.7C490.6,151,490.9,151.3,491.2,151.6z"/>
		<path class="st3" d="M438.3-5.6l-0.4-1.5L326.4,131.3c0.4,0.2,0.7,0.4,1,0.7L438.3-5.6z"/>
		<path class="st3" d="M484.9,148.4c0.4,0,0.8,0.1,1.2,0.2l28.5-239.9c-0.4,0-0.8-0.1-1.2-0.2L484.9,148.4z"/>
		<path class="st3" d="M493.5,162.6l106.3,34.3v-1.3l-106-34.2C493.7,161.8,493.6,162.2,493.5,162.6z"/>
		<path class="st3" d="M374.1,336.6l106.2-167.8c-0.4-0.1-0.8-0.3-1.2-0.5l-106,167.6C373.5,336.1,373.8,336.3,374.1,336.6z"/>
		<path class="st3" d="M240.3-49.2c-0.3-0.3-0.6-0.6-0.8-1L81,105.2c0.4,0.2,0.7,0.5,1,0.8L240.3-49.2z"/>
		<path class="st3" d="M171.9,123.7l1.3,0.1l71.3-170.4c-0.4-0.1-0.8-0.3-1.2-0.5L171.9,123.7z"/>
		<path class="st3" d="M172.7,125l-1.3-0.1L115,259.6c0.4,0.1,0.8,0.2,1.2,0.4L172.7,125z"/>
		<path class="st3" d="M546.9,388.6l-59.9-219.8c-0.4,0.1-0.8,0.3-1.2,0.3L545.7,389C546.1,388.8,546.5,388.7,546.9,388.6z"/>
		<path class="st3" d="M480.4,148.9c0.4-0.1,0.8-0.2,1.2-0.3L439.2-6.8l-0.4-1.5l-7.9-29.2l-1.2,0.3l8.2,30.1l0.4,1.5L480.4,148.9z"
			/>
		<path class="st3" d="M310.6,140.1c0-0.4,0-0.8,0.1-1.2l-137.5-15.1l-1.3-0.1l-86.1-9.5c0,0.4,0,0.8-0.1,1.2l85.7,9.4l1.3,0.1
			L310.6,140.1z"/>
		<path class="st3" d="M473.4,156.8l-141.9-15.6c0,0.4-0.1,0.8-0.2,1.2L473.2,158C473.2,157.6,473.3,157.2,473.4,156.8z"/>
		<path class="st3" d="M311.6,144.9L120.7,263.3c0.3,0.3,0.5,0.7,0.7,1L312.2,146C312,145.7,311.8,145.3,311.6,144.9z"/>
		<path class="st8" d="M310.5,140.3c0,1.6,0.4,3.2,1.1,4.6c0.2,0.4,0.4,0.7,0.6,1.1c1.9,2.9,5.1,4.8,8.8,4.8c0.9,0,1.7-0.1,2.5-0.3
			c0.4-0.1,0.8-0.2,1.2-0.4c3.3-1.3,5.9-4.2,6.6-7.7c0.1-0.4,0.1-0.8,0.2-1.2c0-0.3,0-0.6,0-0.8c0-3.4-1.6-6.4-4.1-8.3
			c-0.3-0.3-0.7-0.5-1-0.7c-1.6-0.9-3.4-1.5-5.3-1.5c-0.4,0-0.7,0-1.1,0.1c-0.4,0-0.8,0.1-1.2,0.2c-4.2,0.9-7.5,4.4-8.1,8.8
			c-0.1,0.4-0.1,0.8-0.1,1.2C310.6,140.2,310.5,140.3,310.5,140.3z"/>
		<path class="st8" d="M85.7,113.9c0-3.2-1.4-6.1-3.7-8c-0.3-0.3-0.7-0.5-1-0.8c-1.7-1.1-3.6-1.7-5.8-1.7c-5.8,0-10.5,4.7-10.5,10.5
			s4.7,10.5,10.5,10.5c5.3,0,9.6-3.9,10.4-9c0.1-0.4,0.1-0.8,0.1-1.2C85.7,114.1,85.7,114,85.7,113.9z"/>
		<path class="st8" d="M483.7,148.3c-0.7,0-1.4,0.1-2.1,0.2c-0.4,0.1-0.8,0.2-1.2,0.3c-3.5,1.2-6.2,4.2-7,7.9
			c-0.1,0.4-0.1,0.8-0.2,1.2c0,0.3,0,0.6,0,0.8c0,4.2,2.4,7.8,6,9.5c0.4,0.2,0.8,0.3,1.2,0.5c1.1,0.4,2.2,0.6,3.4,0.6
			c0.8,0,1.5-0.1,2.2-0.2c0.4-0.1,0.8-0.2,1.2-0.3c2.9-1,5.3-3.3,6.4-6.2c0.1-0.4,0.3-0.8,0.4-1.2c0.2-0.8,0.3-1.7,0.3-2.5
			c0-2.8-1.1-5.4-2.9-7.3c-0.3-0.3-0.6-0.6-0.9-0.9c-1.2-1-2.6-1.7-4.2-2.1c-0.4-0.1-0.8-0.2-1.2-0.2
			C484.5,148.4,484.1,148.3,483.7,148.3z"/>
		<path class="st8" d="M377.8,347.6c0.1-0.4,0.2-0.8,0.3-1.2c0.1-0.5,0.1-1,0.1-1.5c0-3.4-1.6-6.3-4-8.3c-0.3-0.3-0.7-0.5-1-0.7
			c-1.6-1-3.4-1.5-5.4-1.5c0,0-0.1,0-0.1,0c-0.4,0-0.8,0-1.2,0.1c-3.7,0.4-6.9,2.8-8.4,6.1c-0.2,0.4-0.3,0.8-0.5,1.2
			c-0.3,1-0.5,2.1-0.5,3.2c0,5.8,4.7,10.5,10.5,10.5c1.3,0,2.5-0.2,3.6-0.6c0.4-0.1,0.8-0.3,1.2-0.5
			C375,352.9,377,350.5,377.8,347.6z"/>
		<path class="st8" d="M250.5,463.9c2.5,0,4.7-0.9,6.5-2.3c0.3-0.3,0.6-0.5,0.9-0.8c1.8-1.9,2.9-4.4,2.9-7.2
			c0-5.7-4.6-10.3-10.3-10.3c-1.8,0-3.4,0.4-4.9,1.2c-0.4,0.2-0.7,0.4-1.1,0.7c-2.6,1.9-4.3,4.9-4.3,8.4c0,2,0.6,3.9,1.6,5.5
			c0.2,0.4,0.5,0.7,0.7,1C244.4,462.4,247.3,463.9,250.5,463.9z"/>
		<path class="st8" d="M540.4,394.3c-0.2,0.4-0.3,0.8-0.4,1.2c-0.3,0.9-0.4,1.9-0.4,3c0,2.4,0.8,4.6,2.2,6.3
			c0.3,0.3,0.5,0.6,0.8,0.9c1.5,1.5,3.4,2.5,5.5,2.9c0.4,0.1,0.8,0.1,1.2,0.1c0.2,0,0.3,0,0.5,0c2.3,0,4.3-0.7,6-2
			c0.3-0.2,0.7-0.5,1-0.8c2-1.9,3.3-4.6,3.3-7.5c0-2.2-0.7-4.2-1.9-5.9c-0.2-0.3-0.5-0.7-0.8-1c-1.9-2.1-4.6-3.4-7.6-3.4
			c-1,0-2,0.2-2.9,0.4c-0.4,0.1-0.8,0.3-1.2,0.4C543.3,390,541.4,391.9,540.4,394.3z"/>
		<path class="st8" d="M122.4,272.1c0.1-0.4,0.2-0.8,0.2-1.2c0.1-0.4,0.1-0.9,0.1-1.4c0-1.9-0.5-3.7-1.4-5.2c-0.2-0.4-0.4-0.7-0.7-1
			c-1.1-1.5-2.7-2.7-4.5-3.4c-0.4-0.1-0.8-0.3-1.2-0.4c-0.8-0.2-1.6-0.3-2.5-0.3c-5.7,0-10.3,4.6-10.3,10.3
			c0,5.7,4.6,10.3,10.3,10.3c2,0,3.9-0.6,5.5-1.6c0.4-0.2,0.7-0.5,1-0.7C120.7,276.1,121.9,274.3,122.4,272.1z"/>
		<path class="st3" d="M550.6,1186l0.9-0.9l48.3-51.9v-1.8l-49.3,53l-0.9,0.9l-83.9,90.1l-1,1.1l-43.3,46.5c0.4,0.2,0.7,0.5,1,0.7
			l43.7-47l1-1.1L550.6,1186z"/>
		<path class="st8" d="M415.9,1321.3c-0.2,0-0.4,0-0.6,0c-0.4,0-0.8,0.1-1.2,0.1c-4.8,0.9-8.4,5.1-8.4,10.1c0,0.9,0.1,1.7,0.3,2.6
			c0.1,0.4,0.2,0.8,0.4,1.2c1,2.5,2.9,4.5,5.3,5.6c0.4,0.2,0.8,0.3,1.2,0.5c1,0.3,2,0.5,3.1,0.5c2.5,0,4.8-0.9,6.6-2.4
			c0.3-0.3,0.6-0.6,0.9-0.9c1.7-1.8,2.8-4.3,2.8-7c0-3.2-1.4-6-3.7-7.9c-0.3-0.3-0.7-0.5-1-0.7
			C419.9,1321.9,418,1321.3,415.9,1321.3z"/>
		<path class="st3" d="M392,1050.5l207.8-90.9v-1.4l-208.3,91.1C391.7,1049.7,391.9,1050.1,392,1050.5z"/>
		<path class="st3" d="M373.2,1058.8c-0.2-0.4-0.3-0.8-0.5-1.2L87.9,1182.2c0.2,0.4,0.4,0.7,0.5,1.1L373.2,1058.8z"/>
		<path class="st8" d="M89.1,1187.1c0-1.3-0.3-2.6-0.7-3.7c-0.2-0.4-0.3-0.8-0.5-1.1c-1.7-3.2-5.1-5.4-9.1-5.4
			c-5.7,0-10.3,4.6-10.3,10.3c0,5.7,4.6,10.3,10.3,10.3c4.7,0,8.6-3.1,9.9-7.4c0.1-0.4,0.2-0.8,0.3-1.2
			C89,1188.2,89.1,1187.7,89.1,1187.1z"/>
		<path class="st3" d="M295,1246.5c-0.4-0.1-0.8-0.3-1.2-0.5l-63.1,137.1c0.4,0.2,0.8,0.4,1.1,0.6L295,1246.5z"/>
		<path class="st3" d="M377.8,1063.5l-75.4,163.9c0.4,0.2,0.8,0.4,1.1,0.6L379,1064C378.6,1063.8,378.2,1063.7,377.8,1063.5z"/>
		<path class="st8" d="M377.8,1063.5c0.4,0.2,0.8,0.4,1.1,0.5c1.1,0.4,2.3,0.6,3.5,0.6c0.2,0,0.4,0,0.6,0c0.4,0,0.8-0.1,1.2-0.1
			c1.7-0.3,3.3-1,4.6-2.1c0.3-0.3,0.6-0.5,0.9-0.9c1.8-1.9,2.9-4.4,2.9-7.2c0-1.3-0.3-2.6-0.7-3.8c-0.2-0.4-0.3-0.8-0.5-1.1
			c-1-1.8-2.5-3.3-4.4-4.2c-0.4-0.2-0.8-0.4-1.1-0.5c-1.1-0.4-2.3-0.6-3.5-0.6c-0.6,0-1.2,0.1-1.8,0.2c-0.4,0.1-0.8,0.2-1.2,0.3
			c-1.3,0.4-2.4,1-3.4,1.8c-0.3,0.3-0.6,0.6-0.9,0.9c-1.4,1.5-2.4,3.3-2.7,5.4c-0.1,0.4-0.1,0.8-0.1,1.3c0,0.2,0,0.3,0,0.5
			c0,1.2,0.2,2.3,0.6,3.3c0.1,0.4,0.3,0.8,0.5,1.2C374.2,1060.8,375.8,1062.5,377.8,1063.5z"/>
		<path class="st8" d="M231.8,1383.7c-0.4-0.2-0.7-0.4-1.1-0.6c-1.2-0.5-2.6-0.8-4-0.8c-5.7,0-10.3,4.6-10.3,10.3
			s4.6,10.3,10.3,10.3s10.3-4.6,10.3-10.3c0-0.9-0.1-1.7-0.3-2.6c-0.1-0.4-0.2-0.8-0.4-1.2C235.4,1386.7,233.8,1384.9,231.8,1383.7z
			"/>
		<path class="st8" d="M298.4,1247.1c4.4,0,8.2-2.8,9.6-6.7c0.1-0.4,0.3-0.8,0.4-1.2c0.2-0.8,0.3-1.6,0.3-2.4c0-3.8-2.1-7.1-5.2-8.9
			c-0.4-0.2-0.7-0.4-1.1-0.6c-1.2-0.5-2.6-0.8-4-0.8c-4.9,0-9,3.5-10,8.1c-0.1,0.4-0.2,0.8-0.2,1.2c0,0.3,0,0.7,0,1
			c0,4,2.3,7.5,5.7,9.2c0.4,0.2,0.8,0.3,1.2,0.5C296,1246.9,297.2,1247.1,298.4,1247.1z"/>
	</g>
</g>
</svg>
